<svg xmlns="http://www.w3.org/2000/svg" fill-rule="evenodd" stroke-linejoin="round" stroke-miterlimit="2" clip-rule="evenodd" viewBox="0 0 32 32" id="file"><path fill="url(#a)" d="M13.5 6c0-.473-.672-.857-1.5-.857H6c-1.193 0-2.338.271-3.182.753C1.974 6.378 1.5 7.032 1.5 7.714v14.572c0 .682.474 1.336 1.318 1.818.844.482 1.989.753 3.182.753h6c.828 0 1.5-.384 1.5-.857z" transform="matrix(.66667 0 0 1.16667 2 -2)"></path><path fill="url(#b)" d="M29 5a3 3 0 0 0-3-3H10a3 3 0 0 0-3 3v22a3 3 0 0 0 3 3h11c.265 0 .52-.106.707-.292l7-7.001A1 1 0 0 0 29 22z"></path><path fill-opacity=".1" d="M11 20h12a1 1 0 0 0 0-2H11a1 1 0 0 0 0 2zm0-4h3.6a1 1 0 0 0 0-2H11a1 1 0 0 0 0 2zm13-8a1 1 0 0 0-1-1H11a1 1 0 0 0-1 1v3a1 1 0 0 0 1 1h12a1 1 0 0 0 1-1z"></path><path fill="url(#c)" d="M21 30c.265 0 .52-.105.707-.293l7-7A1 1 0 0 0 28 21h-7a1 1 0 0 0-1 1v7a1 1 0 0 0 1 1z"></path><path fill="url(#d)" d="M12 15h3.6a1 1 0 0 0 0-2H12a1 1 0 0 0 0 2z"></path><path fill="url(#e)" d="M7 8h4c.184 0 .333-.448.333-1S11.184 6 11 6H7c-.184 0-.333.448-.333 1S6.816 8 7 8Z" transform="matrix(3 0 0 1 -9 11)"></path><path fill="url(#f)" d="M23.833 7c0-.552-.373-1-.833-1H13c-.46 0-.833.448-.833 1v3c0 .552.373 1 .833 1h10c.46 0 .833-.448.833-1z" transform="matrix(1.2 0 0 1 -3.6 0)"></path><defs><linearGradient id="a" x1="0" x2="1" y1="0" y2="0" gradientTransform="matrix(6 0 0 3.42857 1.5 16.286)" gradientUnits="userSpaceOnUse"><stop offset="0" stop-color="#ff8860"></stop><stop offset="1" stop-color="#ff3a5b"></stop></linearGradient><linearGradient id="b" x1="0" x2="1" y1="0" y2="0" gradientTransform="matrix(19.99997 -25.99989 25.99996 19.9999 7 29)" gradientUnits="userSpaceOnUse"><stop offset="0" stop-color="#f9a823"></stop><stop offset="1" stop-color="#fce783"></stop></linearGradient><linearGradient id="c" x1="0" x2="1" y1="0" y2="0" gradientTransform="matrix(-4 -5 5 -4 25 26)" gradientUnits="userSpaceOnUse"><stop offset="0" stop-color="#ffd68f"></stop><stop offset="1" stop-color="#fff"></stop></linearGradient><linearGradient id="d" x1="0" x2="1" y1="0" y2="0" gradientTransform="matrix(5 0 0 5 11 14)" gradientUnits="userSpaceOnUse"><stop offset="0" stop-color="#fd6e3e"></stop><stop offset="1" stop-color="#fe9539"></stop></linearGradient><linearGradient id="e" x1="0" x2="1" y1="0" y2="0" gradientTransform="matrix(4.66667 0 0 14 6.667 7)" gradientUnits="userSpaceOnUse"><stop offset="0" stop-color="#fd6e3e"></stop><stop offset="1" stop-color="#fea75b"></stop></linearGradient><linearGradient id="f" x1="0" x2="1" y1="0" y2="0" gradientTransform="matrix(0 -5 4.16667 0 18 11)" gradientUnits="userSpaceOnUse"><stop offset="0" stop-color="#fd6e3e"></stop><stop offset="1" stop-color="#feaa61"></stop></linearGradient></defs></svg>