<svg xmlns="http://www.w3.org/2000/svg" width="64" height="64" fill="none" viewBox="0 0 64 64" id="folder"><path fill="#030B26" fill-opacity=".1" d="M8 30V50C8 54.4183 11.5817 58 16 58H52C56.4183 58 60 54.4183 60 50V30H8Z"></path><path fill="#B132FF" d="M4 26V46C4 50.4183 7.58172 54 12 54H48C52.4183 54 56 50.4183 56 46V26H4Z"></path><path fill="#FFA621" d="M36 6C33.7909 6 32 7.79086 32 10V14H8C5.79086 14 4 15.7909 4 18V22H56V14C56 9.58172 52.4183 6 48 6H36Z"></path><path fill="url(#paint0_linear)" d="M36 18H10C8.89543 18 8 18.8954 8 20V40C8 43.3137 10.6863 46 14 46H46C49.3137 46 52 43.3137 52 40V16C52 12.6863 49.3137 10 46 10H38C36.8954 10 36 10.8954 36 12V18Z"></path><defs><linearGradient id="paint0_linear" x1="30" x2="30" y1="10" y2="46" gradientUnits="userSpaceOnUse"><stop stop-color="#fff" stop-opacity=".6"></stop><stop offset="1" stop-color="#fff" stop-opacity=".1"></stop></linearGradient></defs></svg>