<svg xmlns="http://www.w3.org/2000/svg" viewBox="0 0 132 132" id="cloud-locker"><path fill="#e9e7fc" d="M15.3 84.1c-.1 0-.1-.1-.2-.1-.1-.1-.2-.1-.3-.2.2.1.3.2.5.3z"></path><path fill="#e9e7fc" d="M99.6 26.3c0 8-5.6 17.8-12.6 21.9-6 3.4-54.2 31.3-60.2 34.8-4.5 2.6-8.5 2.8-11.5 1.1-.2-.1-.4-.2-.5-.3.1.1.2.1.3.2l-6.3-3.7C5.9 78.6 4.1 75 4.1 69.9c0-8.5 5-18.6 11.8-24.7-.2-1-.3-2.1-.3-3.2 0-11.4 8-25.4 18-31.1 5-2.9 9.5-3.2 12.8-1.3l2.5 1.4-2.1-1.3c1.6-2.8 3.9-5.1 6.3-6.6 2.6-1.5 4.9-1.6 6.6-.7l5.5 3.2c4.4-2.5 8.4-2.8 11.3-1.1l6.2 3.6c1.9 1 3.4 2.8 4.2 5.3.9.1 1.8.4 2.5.8l6.5 3.8c-.1-.1-.2-.1-.4-.2 2.5 1.4 4.1 4.3 4.1 8.5z"></path><path fill="#f3f1fc" d="M15.3 84.1c-.1 0-.1-.1-.2-.1-.1-.1-.2-.1-.3-.2.2.1.3.2.5.3z"></path><path fill="#e9e7fc" d="m89.4 14.4 6.5 3.8c-2.1-1.2-5-1.2-8.3.5l-6.5-3.8c3.2-1.7 6.1-1.7 8.3-.5z"></path><path fill="#dedffb" d="M76.5 4.7 83 8.5c-2.9-1.7-6.9-1.4-11.3 1.1-1 .5-1.9 1.2-2.8 1.9l-6.5-3.8c.9-.7 1.9-1.4 2.8-1.9 4.4-2.5 8.4-2.8 11.3-1.1z"></path><path fill="#e9e7fc" d="m59.7 2.6 6.5 3.8c-1.7-1-4-.8-6.6.6-2.5 1.4-4.7 3.8-6.3 6.6l-6.5-3.8c1.6-2.8 3.9-5.1 6.3-6.6 2.6-1.4 4.9-1.6 6.6-.6zM15.3 84.1l-6.5-3.8C5.9 78.6 4.1 75 4.1 69.9c0-8.5 5-18.6 11.8-24.7l6.5 3.8c-6.9 6.1-11.9 16.2-11.8 24.7 0 5.1 1.8 8.7 4.7 10.4z"></path><path fill="#dedffb" d="M53 13.4c-3.3-1.9-7.8-1.6-12.8 1.3-10 5.8-18 19.7-18 31.2 0 1.1.1 2.2.3 3.2L16 45.3c-.2-1-.3-2.1-.3-3.2 0-11.4 8-25.4 18-31.1 5-2.9 9.5-3.2 12.8-1.3l6.5 3.7z"></path><path fill="#f3f1fc" d="M40.2 14.7c5.2-3 9.8-3.2 13.1-1.1 1.6-2.8 3.9-5.1 6.3-6.6 4.9-2.8 8.9-.8 9.2 4.5.9-.7 1.9-1.4 2.8-1.9 8.8-5.1 15.9-1 15.9 9 6.6-3.4 11.9-.1 12 7.7 0 8-5.6 17.8-12.6 21.9C81 51.6 32.8 79.5 26.8 83c-8.9 5.1-16.1 1-16.2-9.2 0-8.5 5-18.6 11.8-24.7-.2-1-.3-2.1-.3-3.2.1-11.5 8.1-25.5 18.1-31.2z"></path><path fill="#fff" d="m66.8 14.9.1 39.2-28.6 16.5-.1-39.2z"></path><path fill="#dedffb" d="M65.8 16.7 39.3 32v6.1l26.6 15.4z"></path><path fill="#9ea9c9" d="m39.3 38.1.1 30.7 26.5-15.3z"></path><path fill="#febc1f" d="M63.6 53.3c-.1.1-7.7 4.5-7.6 4.4l-13.4-7.8v-8.1c.1-.1 8.1-4.7 7.6-4.4l13.4 7.8v8.1z"></path><path fill="#f9a83d" d="m42.5 41.8 13.4 7.8v8.1l-13.3-7.8z"></path><path fill="#ffd06c" d="m63.5 45.2-7.6 4.4-13.4-7.8 7.7-4.3z"></path><path fill="#febc1f" d="m63.5 45.2.1 8.1-7.7 4.4v-8.1z"></path><path fill="#febc1f" d="m45.3 40.3 2.1-1.3 13.4 7.8-2.1 1.2z"></path><path fill="#f9a83d" d="m58.7 48 .1 8.1 2.1-1.3-.1-8z"></path><path fill="#ef7b56" d="m46.2 39.7.3-.1 13.4 7.7-.3.2z"></path><path fill="#febc1f" d="M63.6 43.6C57.7 47 59.2 46.1 56 48l-13.4-7.8v-8.1c1-.6-.6.3 7.6-4.4l13.4 7.8v8.1z"></path><path fill="#f9a83d" d="M42.5 32.2 55.9 40v8l-13.3-7.7z"></path><path fill="#ffd06c" d="M63.5 35.6 55.9 40l-13.4-7.8 7.7-4.4z"></path><path fill="#febc1f" d="m63.5 35.6.1 8-7.7 4.4v-8z"></path><path fill="#febc1f" d="m45.3 30.6 2.1-1.2 13.4 7.7-2.1 1.3z"></path><path fill="#f9a83d" d="m58.7 38.4.1 8 2.1-1.2-.1-8.1z"></path><path fill="#ef7b56" d="m46.2 30.1.3-.2 13.4 7.8-.3.1z"></path><path fill="#1d2943" d="m61.6 43.2-.2 39.1-1.4.9-21.9-12.6.1-39.2 1.5-.9z"></path><path fill="#1d2943" d="m60.1 44 1.5-.8-.2 39.2-1.4.8z"></path><path fill="#4c5c75" d="m38.2 31.4 1.5-.9 21.9 12.7-1.5.8z"></path><path fill="#111d33" d="M60.1 44 60 83.2 38.1 70.6l.1-39.2z"></path><path fill="#9ea9c9" d="M44.2 56.1c.4-.3 1.1-.2 1.7.2 1.4.8 2.5 2.7 2.4 4.2 0 .8-.3 1.3-.7 1.6l4.5-2.6c.4-.3.7-.8.7-1.6 0-1.6-1.1-3.4-2.4-4.2-.7-.4-1.3-.4-1.7-.2l-4.5 2.6z"></path><path fill="#1d2943" d="M47.4 55.8c-1-.6-1.9-.1-1.9 1.1 0 1.2.8 2.6 1.8 3.2 1 .6 1.9.1 1.9-1.1.1-1.2-.8-2.6-1.8-3.2z"></path><path fill="#dedffb" d="M46 62.1v4.1c0 .1.1.2.2.3.3.2.8.2 1.1 0 .1-.1.2-.2.2-.3v-4.1c0 .1-.1.2-.2.3-.3.2-.8.2-1.1 0-.1 0-.2-.1-.2-.3z"></path><path fill="#e3e7f0" d="M46.3 61.8c-.3.2-.3.4 0 .6.3.2.8.2 1.1 0 .3-.2.3-.4 0-.6-.4-.1-.8-.1-1.1 0z"></path><path fill="#dedffb" d="M44.4 59 41 61.2c-.1.1-.1.2-.1.3 0 .3.3.7.6.9.2.1.3.1.4 0l3.4-2.3c-.1.1-.2.1-.4 0-.3-.1-.6-.5-.6-.9-.1-.1 0-.2.1-.2z"></path><path fill="#e3e7f0" d="M44.7 58.8c-.3-.1-.5 0-.5.3s.3.7.6.9c.3.2.5 0 .5-.3s-.3-.7-.6-.9z"></path><path fill="#dedffb" d="m45.3 54.6-3.1-4.2c-.1-.1-.2-.1-.4-.1-.3 0-.7.3-.9.6-.1.2-.1.3 0 .4l3.1 4.2c-.1-.1-.1-.2 0-.4.1-.3.5-.6.9-.6.2 0 .4 0 .4.1z"></path><path fill="#e3e7f0" d="M45.3 55c.1-.3 0-.5-.4-.5-.3 0-.7.3-.9.6-.1.3 0 .5.4.5s.8-.3.9-.6z"></path><path fill="#df3260" d="M51.4 59.8c0 1.1-.4 1.9-1.1 2.3l-1.9 1.1-5.1-8.8 1.9-1.1c.7-.4 1.6-.3 2.6.3 2 1.1 3.6 3.9 3.6 6.2z"></path><path fill="#f45170" d="M45.9 54.6c-2-1.1-3.6-.2-3.6 2.1 0 2.3 1.6 5.1 3.6 6.2 2 1.1 3.6.2 3.6-2.1 0-2.2-1.6-5-3.6-6.2z"></path><path fill="#df3260" d="M44 57.5c0 .1 0 .1 0 0v.3c.1.5.2 1 .5 1.4.1.1.1.2.2.4.3.4.6.8 1 1.1.1.1.2.1.3.2.3.2.6.2.8.2.1 0 .2 0 .3-.1.1 0 .1-.1.2-.1.2-.2.4-.6.4-1v-.3c-.1-.5-.2-1-.5-1.4-.1-.1-.1-.2-.2-.4-.3-.4-.6-.8-1-1.1-.1-.1-.2-.1-.3-.2-.3-.2-.6-.2-.8-.2-.1 0-.2 0-.3.1-.1 0-.1.1-.2.1-.3.2-.4.6-.4 1z"></path><path fill="#dedffb" d="M47.5 54.3c0 .1-.1.2-.2.3-.3.2-.8.2-1.1 0-.1-.1-.2-.2-.2-.3v-4.1h1.5v4.1z"></path><path fill="#f3f1fc" d="M46.3 50c-.3.2-.3.4 0 .6.3.2.8.2 1.1 0 .3-.2.3-.4 0-.6-.4-.2-.8-.2-1.1 0z"></path><path fill="#dedffb" d="m53.1 55.4-3.4 2.3c-.1.1-.2.1-.4 0-.3-.1-.6-.5-.6-.9 0-.2 0-.3.1-.3l3.4-2.3.9 1.2z"></path><path fill="#f3f1fc" d="M52.7 54.2c-.3-.1-.5 0-.5.3s.3.7.6.9c.3.2.5 0 .5-.3 0-.4-.3-.8-.6-.9z"></path><path fill="#dedffb" d="m52.9 65.1-1.2.9-2.4-3.3c-.1-.1-.1-.2 0-.4.1-.3.5-.6.9-.6.2 0 .3 0 .3.1l2.4 3.3z"></path><path fill="#f3f1fc" d="M52.9 65.5c.1-.3 0-.5-.4-.5-.3 0-.7.3-.9.6-.1.3 0 .5.4.5s.8-.3.9-.6z"></path><path fill="#f4d6d4" d="m100.6 62.4-.5-.7.4-.3-1.5.4c-.3.1-.6.1-.9-.1-.8-.3-2.3-.9-2.8-.5-.8.7.9 1.5.9 1.5s-4.2-.2-4.3.9c-.1 1.1 2.9.8 2.9.8s-.4 1.1.7 2.2c1.2 1.2 2.9 0 3.5-.5 0-.1.2-.1.4-.1l1.5-.5.2-3.4-.5.3z"></path><path fill="#f3f1fc" d="M100.2 65.9c.6-1.5.2-3.3-.9-4.4h-.9c1.2 1.1 1.6 2.9.9 4.4h.9z"></path><path fill="#50b069" d="M120.6 57.1v-1.2c-6.8 2.6-15.1 6-21.6 5.6.7.6 1.1 1.5 1.2 2.4.1.7 0 1.4-.3 2.1 7.2.3 15.8-.3 22.8-1.8l.2-7.1h-2.3z"></path><path fill="#5ec363" d="M120.6 57.1v-1.2c-6.8 2.6-15.1 6-21.6 5.6.7.6 1.1 1.5 1.2 2.4 6.9.2 14.8-.4 21.3-1.8l.1-5h-1z"></path><path fill="#f9a83d" d="m113.1 49-4.1 3.8c-5.7-2.6-10.7-5.5-15.1-8.7l4.1-3.8 15.1 8.7z"></path><path fill="#febc1f" d="m74.7 49 4.1 3.8c3.6-1.2 9.3-5 15-8.7l-4.1-3.8-15 8.7zm32.6 3.8c-2.3-2.1-8.7-5.3-13.5-7.8v15.5l.1.1 13.4-7.8z"></path><path fill="#f9a83d" d="M93.9 45c-5.4 2.5-10.7 5.1-13.4 7.8l13.4 7.7V45z"></path><path fill="#ffd06c" d="m93.9 44.1-15 8.7L94 61.5l15-8.7-15.1-8.7zm.1 16.5-13.5-7.8L93.9 45l13.5 7.8L94 60.6z"></path><path fill="#e9e7fc" d="M82.5 52.6v6.7l13.6 7.9v-6.7z"></path><path fill="#dedffb" d="M96.1 60.5v6.7l10.2-5.8-.1-6.8z"></path><path fill="#b0b8cf" d="M102 59.3c-1.8 1.2-4.5 2.8-5.8 3.5H96c-1.8-1.1-3.6-2.1-5.4-3.3 1.9 1 3.7 2 5.5 3.1H96c1.3-.8 3.9-2.2 6-3.3z"></path><path fill="#b0b8cf" d="M99.3 62.3c-.8.6-2.2 1.4-3.1 1.9H96c-.8-.5-1.5-.9-2.3-1.5.8.4 1.6.8 2.4 1.3H96c1-.5 2.3-1.2 3.3-1.7zm0 1.7c-.8.6-2.2 1.4-3.1 1.9H96c-.8-.5-1.5-.9-2.3-1.5.8.4 1.6.8 2.4 1.3H96c1-.6 2.3-1.3 3.3-1.7z"></path><path fill="#f3f1fc" d="m82.5 52.6 13.6 7.9 10.1-5.9-13.6-7.9z"></path><path fill="#fff" d="m83.6 52.6 9-5.2 12.5 7.2-9 5.2z"></path><path fill="#febc1f" d="M99.1 52.8v.2c.2.3.8.4 1.2.2.3-.2.3-.4 0-.6-.4-.2-1.1-.1-1.2.2z"></path><path fill="#c9cee2" d="M96.4 52.8c0 .1.1.2 0 .2H99v-.2h-2.6z"></path><path fill="#f45170" d="M95.3 53.2c.1.1.2.1.3.1h.4c.2 0 .4-.1.5-.3v-.2c-.5-.7-2-.1-1.2.4z"></path><path fill="#dedffb" d="m85.7 53.3.3.1 8.1-4.6-.3-.2zM86.6 53.8l.3.1 8-4.6-.3-.2zM84.9 52.8l.3.1 8-4.6-.3-.2zM87.4 54.3l.3.1 8.1-4.6-.3-.2zM88.3 54.7l.3.2 8.1-4.6-.4-.2z"></path><path fill="#c9cee2" d="M96 53.3h-.4V55h.4v-1.7z"></path><path fill="#dedffb" d="m89.1 55.2.3.2 8.1-4.6-.3-.2z"></path><path fill="#c9cee2" d="M91.8 55.3v.2h3.3c0-.1-.1-.2 0-.2h-3.3z"></path><path fill="#dba660" d="M90.6 55.1c-.3.2-.3.4 0 .6.3.2.7.2 1 0 .1 0 .1-.1.2-.2v-.2c0-.1-.1-.1-.2-.2-.2-.1-.7-.1-1 0z"></path><path fill="#78e75a" d="M95.1 55.3v.2c.2.3.8.4 1.2.2.4-.2.2-.6-.3-.7h-.4c-.2.1-.4.2-.5.3z"></path><path fill="#57b3fe" d="m100.9 54.4 1.8 1 1.1-.7-1.8-1z"></path><path fill="#dba660" d="m97.2 54.7 3.3 1.9 1.2-.6-3.3-2z"></path><path fill="#57b3fe" d="m96.6 56.8 1.8 1.1 1.2-.7-1.8-1.1z"></path><path fill="#f45170" d="m92.9 57.1 3.4 2 1.2-.7-3.4-1.9z"></path><path fill="#f3f1fc" d="M82.5 49.8c4.5.3 9.1 4.6 13.6 8.4 3.4-1.1 6.8-2.6 10.1-6.3-4.5-.3-9.1-4.6-13.6-8.4-3.4 1.1-6.8 2.6-10.1 6.3z"></path><path fill="#fff" d="M83.6 49.3c3-2.9 6-4.2 9-5.2 4.2 3.4 8.4 7.4 12.5 8.2-3 2.9-6 4.2-9 5.2-4.2-3.4-8.3-7.4-12.5-8.2z"></path><path fill="#febc1f" d="M99.3 50.9c-.1 0-.2.1-.2.2v.2c0 .1.1.1.2.2.3.2.7.2 1 .1.3-.1.3-.4 0-.6-.3-.1-.8-.2-1-.1z"></path><path fill="#c9cee2" d="M96.4 50.6c0 .1.1.2 0 .2.9.2 1.7.4 2.6.5v-.2c-.8-.1-1.7-.3-2.6-.5z"></path><path fill="#f45170" d="M95.3 50.1c-.4.1-.2.5.3.8.1.1.3.1.4.1.2 0 .4 0 .5-.2v-.2c-.2-.4-.9-.6-1.2-.5z"></path><path fill="#dedffb" d="M85.7 49.4c.1 0 .2.1.3.1 2.7-1.9 5.4-2.8 8.1-3.6l-.3-.3c-2.7.9-5.4 1.9-8.1 3.8zm.9.4c.1.1.2.1.3.2 2.7-1.7 5.4-2.5 8.1-3.3l-.3-.3c-2.7.9-5.4 1.7-8.1 3.4zm-1.7-.7c.1 0 .2.1.3.1 2.7-2.1 5.4-3.1 8.1-4l-.3-.3c-2.7 1-5.4 2-8.1 4.2zm2.5 1.2c.1.1.2.1.3.2 2.7-1.5 5.4-2.2 8.1-3.1l-.3-.3c-2.7.9-5.4 1.6-8.1 3.2zm.9.5c.1.1.2.1.3.2 2.7-1.4 5.4-2 8.1-2.9-.1-.1-.2-.2-.3-.2-2.7.8-5.4 1.5-8.1 2.9z"></path><path fill="#c9cee2" d="M96 51c-.1 0-.3 0-.4-.1v1.7c.1 0 .3.1.4.1V51z"></path><path fill="#dedffb" d="M89.1 51.4c.1.1.2.1.3.2 2.7-1.2 5.4-1.8 8.1-2.8-.1-.1-.2-.2-.3-.2-2.7.9-5.4 1.5-8.1 2.8z"></path><path fill="#c9cee2" d="M91.8 51.9v.2l3.3.9c0-.1-.1-.2 0-.2l-3.3-.9z"></path><path fill="#dba660" d="M90.6 51.5c-.3.1-.3.4 0 .6.3.2.7.3 1 .2.1 0 .1-.1.2-.1V52c0-.1-.1-.1-.2-.2-.2-.3-.7-.4-1-.3z"></path><path fill="#78e75a" d="M95.1 52.8v.2c0 .1.1.1.2.2.7.6 1.7.2 1-.3-.1-.1-.2-.1-.3-.2-.1-.1-.3-.1-.4-.1-.2 0-.4 0-.5.2z"></path><path fill="#57b3fe" d="M100.9 52.8c.6.4 1.2.7 1.8 1l1.2-.9c-.6-.2-1.2-.5-1.8-.8-.5.2-.9.5-1.2.7z"></path><path fill="#dba660" d="M97.2 52.6c1.1.9 2.2 1.7 3.4 2.4.4-.2.8-.4 1.2-.7-1.1-.6-2.2-1.4-3.4-2.2-.4.2-.8.4-1.2.5z"></path><path fill="#57b3fe" d="M96.6 54.6c.6.5 1.2 1 1.8 1.4.4-.2.8-.3 1.2-.5-.6-.4-1.2-.9-1.8-1.3-.4.1-.8.3-1.2.4z"></path><path fill="#f45170" d="M92.9 54c1.1.9 2.2 1.9 3.4 2.8.4-.1.8-.3 1.2-.4-1.1-.9-2.2-1.8-3.4-2.8-.4.2-.8.3-1.2.4z"></path><path fill="#f9a83d" d="M109 52.8v15.6l-15 8.7C89.4 73 89.4 65 94 61.5l15-8.7z"></path><path fill="#febc1f" d="m94 61.5 4.1 3.8 15-8.7-4.1-3.8c-5.5 2.4-11.3 6-15 8.7z"></path><path fill="#4c5c75" d="m95.4 72.4.5.4-.3.2v1.4l-.3.1v-1.3l-.4.2zM96.7 71.6l.5.5-.3.2v1.3l-.4.2v-1.3l-.3.2zM98.9 71.7v1c0 .2-.1.5-.3.5-.2.1-.3 0-.3-.2 0 0 0-.1.1-.1h.1c0 .1.1.2.2.1s.2-.2.2-.3v-1l-.9.5c0-.6.4-1.3.9-1.6v-.1c0-.1 0-.2.1-.2s.1 0 .1.1v.1c.2-.1.4-.1.6 0 .2.1.3.3.3.6l-1.1.6zM97.2 73.7v.4l-2.3 1.4v-.4z"></path><path fill="#febc1f" d="m94 61.5-.1 15.6-15.1-8.7.1-15.6z"></path><path fill="#ffd06c" d="m107.7 52-.2.5-.2.3L94 60.6l-.1-.1-13.4-7.7-.3-.2V52l-1.3.8c3.4 2.8 11.5 8.1 15.1 8.7l15-8.7-1.3-.8z"></path><path fill="#c9cee2" d="M110.1 128.7c0 .1 0 .2-.1.4s-.2.4-.4.6c-.1.1-.2.1-.4.2-.6.2-1.1.2-1.7.2-1.3 0-2.5-.5-3.7-.7-.5-.1-1.1-.2-1.6-.4-.2-.1-.4-.2-.7-.3-.6-.4-1.1-.9-1.3-1.7v-.5c0-.1.1-.2.2-.3l.1-.1c.2-.1.3-.2.5-.3.7-.2 1.5-.1 2.2 0h1.4c.4 0 .7 0 1.1-.1.6-.1 1.2-.5 1.8-.7.3-.2.7-.3 1-.3.2 0 .6-.1.9 0 .2.1.2.6.2.8v.4l.1 2c.4.1.4.4.4.8z"></path><path fill="#e3e7f0" d="M110.1 128.7c0 .1 0 .2-.1.4-.1.1-.2.1-.4.1-.6.2-1.1.2-1.7.2-1.3 0-2.5-.5-3.7-.7-.5-.1-1.1-.2-1.6-.4-.2-.1-.5-.2-.7-.3-.6-.4-1.1-.9-1.3-1.7v-.3c.2-.1.3-.2.5-.3.7-.2 1.5-.1 2.2 0h1.4c.4 0 .7 0 1.1-.1.6-.1 1.2-.5 1.8-.7.3-.2.7-.3 1-.3.2 0 .6-.1.9 0 .2.1.2.6.2.8v.4l.1 2c.3.2.3.5.3.9z"></path><path fill="#c9cee2" d="M122.3 120c.1.6.2 1.5.2 2.1v.4c0 .2 0 .3-.1.5s-.2.3-.3.5c-.4.4-1 .6-1.6.6-.2 0-.4 0-.5-.1-.4-.1-.7-.3-1.1-.5-1.7-1.1-3.2-2.5-4.6-4.1-.4-.5-.6-1.1-.4-1.7 0-.1.1-.2.1-.3.3-.6.9-1.1 1.6-1.1.3 0 .6 0 .9.1l5.7 2.2c.1.3.1 1 .1 1.4z"></path><path fill="#e3e7f0" d="M122.3 120c.1.6.2 1.5.2 2.1v.4c-.1.1-.1.2-.2.3-.4.4-1 .6-1.6.6-.4 0-.8-.2-1.2-.3-1.8-1.2-3.5-2.6-5-4.3-.3-.4-.5-.9-.5-1.3.3-.6.9-1.1 1.6-1.1.3 0 .6 0 .9.1l5.7 2.2c.1.2.1.9.1 1.3z"></path><path fill="#4c5c75" d="M121 102.3c0 4.4 1.3 17.6 1.3 17.6-.3.9-1.6.9-2.8.5-1-.3-1.9-.9-2.1-1.6-2.1-11.2-3.1-19.6-2.5-27.5-1.8 4-2.8 8.7-3.7 15-.7 4.7-1.3 19.1-1.3 19.1 0 .5-1.4.7-2.6.8-1.1 0-2.2-.1-2.2-.6 0 0-.3-15.7-.3-20.9 0-4.9.5-19 .6-20.2v-.1l4.9-1.6 12.1-1.2s0 .4-.1 1c-.3 3.5-1.3 15.3-1.3 19.7z"></path><path fill="#455368" d="M122.3 119.9c-.3.9-1.6.9-2.8.5l-1-18.1v-2.5l1.2-13.6c0-.1-.1-.1-.1-.1-2.8 3.2-7 2.3-11 2.3-1.4 0-1.9 27.6-1.1 37.8-1.1 0-2.2-.1-2.2-.6 0 0-.3-15.7-.3-20.9 0-4.9.5-19 .6-20.2 2.4-1.1 6.8-1.5 8.5-2 1.8-.5 6-.2 8.4.1-.3 3.6-1.3 15.3-1.3 19.7-.2 4.4 1.1 17.6 1.1 17.6z"></path><path fill="#455368" d="m114.9 91.3 1.1-2.1-1.2 8.5v-4.2l.1-2.2z"></path><path fill="#72d561" d="m120.6 59.6 3.4-4.5c.4-.3 9.1-.2-.8 17.9l-2.6-13.4z"></path><path fill="#78e75a" d="M122.7 55.2c-4.5 1-12.1 2.6-15.9 6.7l-.4 15.4-1.3 8.4c.6 3.9 18.1 1.4 17.5-2.6l-.2-2.1c-.3-3.6.3-7.2 1.9-10.5 2-4.3 2.9-8.4 2.6-12.2-.2-2.2-2.1-3.6-4.2-3.1z"></path><path fill="#f5c9c6" d="M91.9 67.8s-.5-3-1.5-3.2c-1-.1-.2 2-.2 1.9s-2.8-4.6-4.7-1.3c-1.8 3.2 4.6 5.7 4.6 5.7 1.4.8 3.2-2.3 1.8-3.1z"></path><path fill="#f3f1fc" d="M95 70.9v-1.1c-1.5-.9-1.4-1.2-2.8-2.1-.1-.1-.3-.1-.5 0-.9.6-1.7 1.7-1.9 3 0 .1 0 .3.1.4 1.9 1.8 1.7 1.5 4 2.8l1.1-3z"></path><path fill="#5ec363" d="M111 64.2c-1.2 5-4.5 11-9 14.5-.9.7-2.2.8-3.3.2-4.3-2.6-5-3.2-8.2-6.9-.4-.4-.4-1.1-.1-1.9.5-1.3 1.6-2.7 2.3-2.2l6.1 4.8c.4.3 1 .3 1.3-.2 1.8-2.4 4.5-7.1 6.2-10.1.5-.8 1.3-1.3 2.2-1.3.4 0 .9.1 1.3.3.1.1.2.1.3.2.8.6 1.1 1.6.9 2.6z"></path><path fill="#72d561" d="M110.1 61.6c-1.2 5-4.3 11.1-8.7 14.6-.9.7-2.2.8-3.3.2-4.1-2.5-4.5-2.8-7.7-6.3.5-1.3 1.6-2.7 2.3-2.2l6.1 4.8c.4.3 1 .3 1.3-.2 1.8-2.4 4.5-7.1 6.2-10.1.5-.8 1.3-1.3 2.2-1.3.4 0 .9.1 1.3.3.1.1.2.2.3.2z"></path><path fill="#f4d6d4" d="M109.5 42.2s-2.2 6.3-.3 11.1c.3.7 1 1.1 1.7 1l1.6-.2c.2 0 .5.1.5.4 0 1.1-.1 2.4-.2 3.7l8-2.9-1.1-2.3-4.1-5.8-3.4-5.5-2.7.5z"></path><path fill="#50b069" d="M113 56.3c-.2 1.2-1.7 2.2-2.3 2.6 4.5.7 7.5-.1 10.6-2.2.2-.2.3-.5.2-.7-.2-.6-.6-1.1-1-1.4-2.1 1.5-4.4 1.9-7.5 1.7z"></path><path fill="#1d2943" d="M122.4 43.1s2 3.4-.7 7.7c0 0-1.2 2.2-1.3 3.2 0 .1 0 .2-.1.3-.3.3-1.2.8-2.9.7 0 0-1.4-.2-2.5-3.6-.1-.5-.5-.9-.9-1.1h-.1c-.5-.2-1 0-1.2.5-.1.2-.1.6-.1.9l-.6-.7-.1-1.1c-.1-.9-.3-1.7-.9-2.4-.2-.3-.3-.8-.3-1.2l.4-2.1L118 42c.2 0 4.4 1.1 4.4 1.1z"></path><path fill="#4c5c75" d="M111.2 44.2s-3.1-1.2-2.3-4.3c0 0 1.1.5 2.4.1.5-.1 1-.3 1.6-.3.4 0 .7-.1.9-.1.4 0-.9-.2-.9-.2 1.4-.4 2.8-.5 4.1-.4.7.1 1.5.4 2.2.9v-.5c1.5.8 3 1.9 3.2 3.7-2 2.8-5.8 3.1-11.2 1.1z"></path><path fill="#f9a83d" d="m94 61.5-4.2 3.8-15.1-8.7 4.2-3.8z"></path></svg>